<?xml version="1.0" standalone="no"?>
<!DOCTYPE svg PUBLIC "-//W3C//DTD SVG 20010904//EN"
 "http://www.w3.org/TR/2001/REC-SVG-20010904/DTD/svg10.dtd">
<svg version="1.0" xmlns="http://www.w3.org/2000/svg"
 width="902.000000pt" height="902.000000pt" viewBox="0 0 902.000000 902.000000"
 preserveAspectRatio="xMidYMid meet">
<metadata>
Created by potrace 1.11, written by Peter Selinger 2001-2013
</metadata>
<g transform="translate(0.000000,902.000000) scale(0.100000,-0.100000)"
fill="#000000" stroke="none">
<path d="M2589 9016 c-2 -2 -17 -7 -34 -9 -28 -5 -66 -14 -90 -21 -110 -32
-234 -113 -343 -224 -127 -129 -226 -316 -258 -486 -2 -12 -6 -32 -9 -46 -2
-14 -7 -38 -10 -55 -3 -16 -7 -41 -10 -55 -2 -13 -7 -42 -10 -65 -3 -22 -8
-47 -10 -55 -2 -8 -6 -33 -10 -55 -14 -98 -84 -313 -112 -346 -7 -8 -13 -20
-13 -26 0 -15 -78 -131 -120 -177 -34 -38 -48 -52 -99 -95 -37 -32 -33 -71 20
-210 27 -69 49 -129 49 -132 0 -4 8 -24 17 -45 9 -22 18 -43 19 -49 1 -5 17
-48 35 -95 18 -47 32 -88 31 -92 -1 -5 2 -8 8 -8 6 0 9 -3 9 -7 -6 -36 8 -41
37 -15 10 9 45 36 76 60 88 67 183 158 223 212 39 53 122 214 156 303 24 64
37 94 55 130 8 16 14 35 14 43 0 8 4 22 9 32 5 9 17 37 26 62 9 25 24 57 32
73 8 15 11 27 7 27 -3 0 -2 6 3 13 6 6 18 37 28 67 10 30 20 60 24 65 3 6 6
15 7 21 4 27 43 102 68 131 44 52 103 31 146 -53 8 -16 17 -31 21 -34 9 -8 42
-92 129 -320 44 -118 88 -229 96 -247 7 -17 14 -36 14 -42 0 -6 7 -27 16 -48
21 -49 27 -62 62 -158 17 -44 34 -89 38 -100 4 -11 8 -22 9 -25 1 -3 7 -18 13
-33 7 -16 12 -34 12 -41 0 -6 5 -17 11 -23 6 -6 12 -17 13 -24 2 -8 6 -21 9
-29 9 -21 51 -134 52 -140 1 -3 7 -18 14 -35 17 -44 65 -169 67 -175 0 -3 6
-18 12 -33 7 -16 12 -31 12 -34 0 -3 6 -19 14 -36 7 -18 24 -59 36 -92 12 -33
26 -69 31 -80 5 -11 22 -58 39 -105 17 -47 35 -94 40 -105 5 -11 30 -76 55
-145 26 -69 49 -132 52 -140 4 -8 7 -17 8 -20 1 -3 7 -18 14 -35 6 -16 32 -84
57 -150 25 -66 51 -133 57 -150 7 -16 11 -33 9 -37 -1 -5 3 -8 8 -8 6 0 10 -6
10 -12 0 -11 83 -239 110 -303 10 -24 22 -57 25 -67 2 -5 4 -10 5 -13 1 -3 3
-8 5 -12 1 -5 6 -19 12 -33 19 -46 115 -295 117 -305 1 -5 21 -59 45 -120 23
-60 56 -146 73 -190 16 -44 34 -89 38 -100 11 -27 23 -58 25 -67 2 -5 4 -10 5
-13 1 -3 3 -8 5 -12 2 -11 15 -44 25 -68 5 -11 27 -69 50 -130 23 -60 50 -132
61 -159 10 -27 19 -55 19 -62 0 -8 4 -14 10 -14 5 0 9 -3 9 -7 -1 -5 0 -11 1
-15 1 -5 3 -11 5 -15 1 -5 7 -21 13 -36 7 -16 12 -31 12 -33 0 -6 46 -128 60
-159 5 -11 31 -76 56 -145 26 -69 62 -165 81 -215 19 -49 38 -103 43 -118 5
-16 14 -35 21 -43 6 -8 9 -14 6 -14 -4 0 3 -21 14 -47 12 -27 25 -59 29 -73 5
-14 19 -54 33 -90 13 -36 43 -114 66 -175 22 -60 45 -119 50 -130 5 -11 14
-36 21 -55 7 -19 16 -44 21 -55 5 -11 20 -50 33 -88 14 -37 32 -82 39 -100 8
-17 25 -59 38 -92 12 -33 33 -84 47 -114 13 -30 25 -60 26 -65 1 -6 10 -25 19
-43 9 -17 25 -54 36 -81 22 -56 113 -241 156 -317 53 -94 196 -308 225 -335 3
-3 27 -32 54 -65 54 -66 273 -286 324 -325 18 -14 47 -38 65 -53 68 -60 283
-197 309 -197 4 0 8 -4 8 -10 0 -5 9 -10 20 -10 11 0 20 -5 20 -10 0 -6 3 -9
8 -8 4 1 30 -9 57 -21 116 -53 321 -112 436 -126 19 -3 64 -9 100 -14 61 -9
422 -7 464 2 11 3 45 8 75 12 156 19 301 53 377 86 24 11 45 19 48 19 29 0
268 141 350 206 17 14 35 28 40 32 126 95 357 313 432 407 210 262 327 538
383 900 18 114 26 339 16 435 -6 56 -16 124 -21 140 -2 8 -7 31 -11 50 -7 42
-9 51 -17 70 -9 24 -27 94 -24 100 1 3 -8 19 -21 37 -12 17 -22 35 -22 41 0 9
-106 231 -132 277 -12 21 -314 621 -319 633 -1 4 -15 34 -29 67 -30 66 -88
228 -93 260 -2 11 -9 38 -15 60 -20 74 -26 140 -25 300 1 169 8 213 60 367 47
139 133 265 219 321 44 28 122 66 152 72 80 17 229 90 282 137 14 13 33 39 43
59 21 45 9 89 -34 131 -28 28 -108 74 -121 70 -5 -1 -8 2 -8 6 0 5 -6 9 -12
10 -11 0 -123 36 -188 60 -8 3 -18 6 -22 7 -5 2 -9 3 -10 5 -2 1 -11 3 -20 5
-10 2 -48 13 -85 25 -38 12 -75 24 -83 26 -32 7 -286 86 -305 94 -18 8 -157
51 -180 56 -5 1 -91 27 -190 58 -99 31 -184 58 -190 60 -35 10 -102 29 -110
31 -5 1 -17 5 -25 8 -35 13 -126 42 -135 42 -9 1 -171 50 -205 62 -8 4 -23 8
-32 9 -10 2 -23 5 -30 6 -7 2 -16 7 -19 11 -3 4 -19 10 -35 13 -26 4 -222 62
-284 84 -14 5 -59 18 -100 30 -41 12 -86 26 -100 30 -72 24 -261 80 -300 90
-25 6 -54 13 -65 16 -41 11 -141 5 -177 -10 -58 -25 -80 -60 -72 -115 7 -46
17 -63 88 -156 36 -47 153 -181 204 -233 12 -13 22 -27 22 -31 0 -4 9 -16 20
-26 11 -10 20 -24 20 -32 0 -7 4 -13 8 -13 13 0 78 -140 87 -185 5 -22 10 -47
11 -55 2 -8 6 -40 9 -70 4 -30 8 -66 11 -80 2 -14 6 -59 9 -100 3 -41 8 -95
10 -120 6 -62 14 -192 20 -330 10 -219 16 -282 35 -388 18 -104 73 -321 89
-350 5 -9 9 -19 8 -22 -4 -36 227 -563 255 -581 5 -3 9 -9 8 -13 -3 -10 202
-390 212 -394 4 -2 8 -12 8 -23 0 -10 4 -19 9 -19 5 0 12 -9 16 -20 3 -11 35
-70 71 -131 35 -61 64 -113 64 -115 0 -2 22 -41 49 -86 51 -86 121 -228 125
-250 1 -7 5 -19 9 -25 5 -7 6 -13 2 -13 -3 0 -1 -8 4 -18 23 -42 32 -174 18
-257 -5 -27 -9 -56 -9 -62 -1 -7 -5 -13 -10 -13 -4 0 -8 -8 -8 -17 0 -27 -50
-91 -99 -127 -159 -115 -334 -89 -488 73 -52 55 -102 163 -119 253 -9 49 -10
56 -14 63 -1 3 -3 9 -4 14 0 5 -4 13 -8 17 -5 4 -8 13 -8 20 0 6 -24 63 -54
125 -29 63 -65 139 -79 169 -14 30 -46 100 -72 155 -56 120 -102 218 -151 323
-20 42 -53 113 -75 158 -21 45 -54 114 -72 155 -36 77 -73 157 -176 373 -34
70 -61 130 -61 133 0 2 -20 45 -45 95 l-46 90 30 46 c17 26 35 52 41 59 5 7
10 15 10 19 0 3 8 18 19 32 28 41 89 164 94 192 3 14 6 30 7 35 1 6 2 12 0 15
-1 3 -3 22 -5 44 -2 21 -7 41 -12 45 -4 3 -13 15 -19 26 -22 41 -121 92 -193
100 -9 1 -23 5 -31 8 -8 3 -37 8 -65 12 -27 3 -71 8 -97 11 -69 8 -70 -11 -7
-143 28 -59 63 -135 79 -168 15 -33 49 -105 75 -160 60 -127 79 -172 69 -163
-4 4 -26 -7 -48 -25 -58 -47 -142 -99 -206 -127 -41 -18 -76 -25 -140 -26 -74
-3 -92 1 -139 23 -62 30 -137 99 -177 163 -15 25 -27 47 -27 50 0 3 -4 16 -10
30 -39 97 -41 204 -4 284 25 55 118 156 142 156 8 0 19 8 24 18 6 9 11 13 11
8 0 -4 10 -2 23 7 12 8 69 29 127 47 58 19 109 37 113 41 5 4 3 17 -4 30 -7
13 -14 26 -14 29 0 3 -23 50 -49 105 -48 99 -79 165 -81 175 -1 3 -21 46 -45
95 -23 50 -52 110 -64 135 -11 25 -25 48 -29 51 -5 4 -48 -20 -96 -51 -90 -60
-161 -97 -199 -105 -12 -2 -26 -6 -31 -10 -17 -10 -164 -6 -178 5 -2 2 -6 3
-10 4 -54 14 -163 108 -183 157 -7 16 -16 29 -20 29 -4 0 -13 19 -20 43 -8 23
-17 47 -22 54 -5 6 -10 32 -11 57 -1 25 -5 46 -9 46 -4 0 -6 6 -3 13 2 6 6 33
9 58 5 48 35 129 48 129 5 0 8 5 8 11 0 16 76 84 118 105 21 11 40 23 43 27 3
5 8 8 10 7 2 -1 11 1 19 4 8 3 58 19 110 37 52 18 98 35 102 39 5 3 -9 42 -31
85 -21 44 -54 114 -74 155 -19 41 -60 128 -91 193 -30 64 -58 117 -61 117 -3
0 -38 -22 -78 -49 -88 -59 -178 -105 -236 -121 -52 -14 -152 -15 -178 -2 -10
5 -35 17 -56 27 -45 22 -142 114 -152 144 -3 11 -11 21 -16 21 -6 0 -7 5 -4
10 3 6 2 10 -3 10 -15 0 -45 113 -48 183 -1 38 3 87 10 110 8 23 15 48 17 56
8 30 88 121 106 121 7 0 13 4 13 9 0 11 113 67 155 77 17 4 35 10 40 14 6 4
33 13 60 20 28 7 54 17 59 21 10 9 -40 127 -59 141 -5 4 -6 8 -2 8 4 0 -4 20
-18 45 -13 25 -25 47 -25 50 -1 3 -19 44 -42 92 -23 49 -42 90 -43 93 -1 3
-24 52 -52 110 -28 58 -53 116 -57 128 -4 12 -12 22 -17 22 -5 0 -9 7 -9 15 0
8 -4 23 -10 33 -39 69 -127 261 -123 266 4 3 1 6 -5 6 -7 0 -12 8 -12 19 0 10
-7 24 -15 31 -8 7 -15 17 -15 22 0 20 -133 284 -177 353 -140 216 -354 399
-571 489 -53 21 -86 34 -97 37 -2 0 -28 7 -57 15 -49 13 -269 29 -279 20z
m4881 -4740 c38 -12 93 -39 114 -56 110 -87 159 -235 121 -366 -21 -71 -37
-97 -96 -155 -157 -155 -429 -109 -532 89 -28 53 -54 172 -38 172 3 0 7 20 8
45 3 83 84 201 166 240 84 40 188 52 257 31z m475 -1099 c11 -3 21 -6 23 -7 1
-2 5 -3 10 -5 80 -22 178 -128 202 -217 33 -122 0 -259 -84 -344 -35 -36 -133
-83 -188 -92 -84 -13 -215 16 -240 52 -4 6 -8 7 -8 3 0 -17 -90 85 -111 125
-29 57 -34 82 -33 168 0 77 25 151 63 192 9 9 27 28 40 43 27 29 87 63 141 81
34 11 143 11 185 1z"/>
<path d="M275 7071 c-23 -10 -75 -66 -75 -81 0 -5 -3 -10 -8 -10 -4 0 -34 -34
-66 -76 -33 -41 -70 -87 -82 -101 -28 -32 -25 -38 53 -123 106 -115 227 -194
382 -250 45 -16 86 -29 89 -28 4 1 18 -2 32 -5 125 -33 322 -30 479 7 96 22
105 34 77 101 -8 19 -13 35 -10 35 2 0 -2 13 -11 30 -8 16 -15 31 -14 32 1 4
-12 61 -18 78 -4 8 -7 18 -8 23 -2 4 -4 9 -5 12 -1 3 -3 8 -4 13 -4 18 -41
133 -62 195 -13 37 -21 67 -18 67 4 0 1 7 -6 15 -7 8 -9 15 -4 15 5 0 3 4 -5
9 -7 5 -29 5 -50 1 -69 -15 -126 -20 -231 -20 -156 0 -237 12 -368 56 -23 8
-44 14 -45 13 -1 0 -11 -4 -22 -8z"/>
<path d="M4338 7002 c-16 -2 -28 -5 -28 -7 0 -4 25 -59 132 -285 45 -93 68
-145 73 -160 9 -28 71 -147 79 -152 18 -13 22 -10 57 53 19 33 39 66 44 73 17
21 50 83 88 165 18 40 16 126 -5 162 -13 25 -88 99 -99 99 -4 0 -24 7 -45 17
-22 9 -46 17 -54 18 -8 2 -37 6 -65 10 -57 8 -137 12 -177 7z"/>
<path d="M4887 5796 c-4 -9 12 -55 34 -104 53 -113 167 -358 209 -449 25 -53
36 -68 44 -60 20 21 131 200 154 247 38 81 43 137 19 202 -16 40 -81 108 -111
115 -6 1 -36 9 -66 18 -30 9 -84 20 -120 25 -157 22 -157 22 -163 6z"/>
</g>
</svg>
